HIERARCHY
ROOT hip
{
  OFFSET 0 0 0
  CHANNELS 6 Xposition Yposition Zposition Zrotation Yrotation Xrotation
  JOINT abdomen
  {
    OFFSET 0 20.6881 -0.73152
    CHANNELS 3 Zrotation Xrotation Yrotation
    JOINT chest
    {
      OFFSET 0 11.7043 -0.48768
      CHANNELS 3 Zrotation Xrotation Yrotation
      JOINT neck
      {
        OFFSET 0 22.1894 -2.19456
        CHANNELS 3 Zrotation Xrotation Yrotation
        JOINT head
        {
          OFFSET -0.24384 7.07133 1.2192
          CHANNELS 3 Zrotation Xrotation Yrotation
          JOINT leftEye
          {
            OFFSET 4.14528 8.04674 8.04672
            CHANNELS 3 Zrotation Xrotation Yrotation
            End Site
            {
              OFFSET 1 0 0
            }
          }
          JOINT rightEye
          {
            OFFSET -3.6576 8.04674 8.04672
            CHANNELS 3 Zrotation Xrotation Yrotation
            End Site
            {
              OFFSET 1 0 0
            }
          }
        }
      }
      JOINT rCollar
      {
        OFFSET -2.68224 19.2634 -4.8768
        CHANNELS 3 Zrotation Xrotation Yrotation
        JOINT rShldr
        {
          OFFSET -8.77824 -1.95073 1.46304
          CHANNELS 3 Zrotation Xrotation Yrotation
          JOINT rForeArm
          {
            OFFSET -28.1742 -1.7115 0.48768
            CHANNELS 3 Zrotation Xrotation Yrotation
            JOINT rHand
            {
              OFFSET -22.5879 0.773209 7.07136
              CHANNELS 3 Zrotation Xrotation Yrotation
              JOINT rThumb1
              {
                OFFSET -1.2192 -0.487915 3.41376
                CHANNELS 3 Zrotation Xrotation Yrotation
                JOINT rThumb2
                {
                  OFFSET -3.37035 -0.52449 3.41376
                  CHANNELS 3 Zrotation Xrotation Yrotation
                  End Site
                  {
                    OFFSET -1.78271 -1.18214 1.43049
                  }
                }
              }
              JOINT rIndex1
              {
                OFFSET -7.75947 0.938293 5.60832
                CHANNELS 3 Zrotation Xrotation Yrotation
                JOINT rIndex2
                {
                  OFFSET -2.54057 -0.884171 1.56538
                  CHANNELS 3 Zrotation Xrotation Yrotation
                  End Site
                  {
                    OFFSET -1.62519 -0.234802 1.16502
                  }
                }
              }
              JOINT rMid1
              {
                OFFSET -8.24714 1.18213 3.41376
                CHANNELS 3 Zrotation Xrotation Yrotation
                JOINT rMid2
                {
                  OFFSET -3.10165 -0.590103 1.0647
                  CHANNELS 3 Zrotation Xrotation Yrotation
                  End Site
                  {
                    OFFSET -2.48547 -0.328903 0.83742
                  }
                }
              }
              JOINT rRing1
              {
                OFFSET -8.82822 0.546677 1.51678
                CHANNELS 3 Zrotation Xrotation Yrotation
                JOINT rRing2
                {
                  OFFSET -2.60934 -0.819778 -0.0198488
                  CHANNELS 3 Zrotation Xrotation Yrotation
                  End Site
                  {
                    OFFSET -2.33842 -0.294052 0.168128
                  }
                }
              }
              JOINT rPinky1
              {
                OFFSET -8.27202 -0.0477905 -0.4584
                CHANNELS 3 Zrotation Xrotation Yrotation
                JOINT rPinky2
                {
                  OFFSET -1.82734 -0.647385 -0.700984
                  CHANNELS 3 Zrotation Xrotation Yrotation
                  End Site
                  {
                    OFFSET -1.69225 -0.51767 -0.607171
                  }
                }
              }
            }
          }
        }
      }
      JOINT lCollar
      {
        OFFSET 2.68224 19.2634 -4.8768
        CHANNELS 3 Zrotation Xrotation Yrotation
        JOINT lShldr
        {
          OFFSET 8.77824 -1.95073 1.46304
          CHANNELS 3 Zrotation Xrotation Yrotation
          JOINT lForeArm
          {
            OFFSET 28.1742 -1.7115 0.48768
            CHANNELS 3 Zrotation Xrotation Yrotation
            JOINT lHand
            {
              OFFSET 22.5879 0.773209 7.07136
              CHANNELS 3 Zrotation Xrotation Yrotation
              JOINT lThumb1
              {
                OFFSET 1.2192 -0.487915 3.41376
                CHANNELS 3 Zrotation Xrotation Yrotation
                JOINT lThumb2
                {
                  OFFSET 3.37035 -0.52449 3.41376
                  CHANNELS 3 Zrotation Xrotation Yrotation
                  End Site
                  {
                    OFFSET 1.78271 -1.18214 1.43049
                  }
                }
              }
              JOINT lIndex1
              {
                OFFSET 7.75947 0.938293 5.60832
                CHANNELS 3 Zrotation Xrotation Yrotation
                JOINT lIndex2
                {
                  OFFSET 2.54057 -0.884171 1.56538
                  CHANNELS 3 Zrotation Xrotation Yrotation
                  End Site
                  {
                    OFFSET 1.62519 -0.234802 1.16502
                  }
                }
              }
              JOINT lMid1
              {
                OFFSET 8.24714 1.18213 3.41376
                CHANNELS 3 Zrotation Xrotation Yrotation
                JOINT lMid2
                {
                  OFFSET 3.10165 -0.590103 1.0647
                  CHANNELS 3 Zrotation Xrotation Yrotation
                  End Site
                  {
                    OFFSET 2.48547 -0.328903 0.83742
                  }
                }
              }
              JOINT lRing1
              {
                OFFSET 8.82822 0.546677 1.51678
                CHANNELS 3 Zrotation Xrotation Yrotation
                JOINT lRing2
                {
                  OFFSET 2.60934 -0.819778 -0.0198488
                  CHANNELS 3 Zrotation Xrotation Yrotation
                  End Site
                  {
                    OFFSET 2.33842 -0.294052 0.168128
                  }
                }
              }
              JOINT lPinky1
              {
                OFFSET 8.27202 -0.0477905 -0.4584
                CHANNELS 3 Zrotation Xrotation Yrotation
                JOINT lPinky2
                {
                  OFFSET 1.82734 -0.647385 -0.700984
                  CHANNELS 3 Zrotation Xrotation Yrotation
                  End Site
                  {
                    OFFSET 1.69225 -0.51767 -0.607171
                  }
                }
              }
            }
          }
        }
      }
    }
  }
  JOINT rButtock
  {
    OFFSET -8.77824 4.35084 1.2192
    CHANNELS 3 Zrotation Xrotation Yrotation
    JOINT rThigh
    {
      OFFSET 0 -1.70687 -2.19456
      CHANNELS 3 Zrotation Xrotation Yrotation
      JOINT rShin
      {
        OFFSET 0 -36.8199 0.73152
        CHANNELS 3 Zrotation Xrotation Yrotation
        JOINT rFoot
        {
          OFFSET 0.73152 -45.1104 -5.12064
          CHANNELS 3 Zrotation Xrotation Yrotation
          End Site
          {
            OFFSET -1.1221 -3.69964 12.103
          }
        }
      }
    }
  }
  JOINT lButtock
  {
    OFFSET 8.77824 4.35084 1.2192
    CHANNELS 3 Zrotation Xrotation Yrotation
    JOINT lThigh
    {
      OFFSET 0 -1.70687 -2.19456
      CHANNELS 3 Zrotation Xrotation Yrotation
      JOINT lShin
      {
        OFFSET 0 -36.8199 0.73152
        CHANNELS 3 Zrotation Xrotation Yrotation
        JOINT lFoot
        {
          OFFSET -0.73152 -45.1104 -5.12064
          CHANNELS 3 Zrotation Xrotation Yrotation
          End Site
          {
            OFFSET 1.1221 -3.69964 12.103
          }
        }
      }
    }
  }
}
MOTION
Frames:	8
Frame Time:	0.03333
0.0 0.0 0.0 0.0 0.0 0.0 0.0 0.0 0.0 0.0 0.0 0.0 0.0 0.0 0.0 0.0 0.0 0.0 0.0 0.0 0.0 0.0 0.0 0.0 0.0 0.0 0.0 0.0 0.0 0.0 0.0 0.0 0.0 0.0 0.0 0.0 0.0 0.0 0.0 0.0 0.0 0.0 0.0 0.0 0.0 0.0 0.0 0.0 0.0 0.0 0.0 0.0 0.0 0.0 0.0 0.0 0.0 0.0 0.0 0.0 0.0 0.0 0.0 0.0 0.0 0.0 0.0 0.0 0.0 0.0 0.0 0.0 0.0 0.0 0.0 0.0 0.0 0.0 0.0 0.0 0.0 0.0 0.0 0.0 0.0 0.0 0.0 0.0 0.0 0.0 0.0 0.0 0.0 0.0 0.0 0.0 0.0 0.0 0.0 0.0 0.0 0.0 0.0 0.0 0.0 0.0 0.0 0.0 0.0 0.0 0.0 0.0 0.0 0.0 0.0 0.0 0.0 0.0 0.0 0.0 0.0 0.0 0.0 0.0 0.0 0.0 0.0 0.0 0.0 0.0 0.0 0.0
-2.5317 60.0022 137.639 -18.160273 -23.544391 15.320708 11.408764 5.235702 94.301604 -6.684074 -2.012347 -80.759306 -7.372548 14.206289 -21.385071 22.339353 -21.449801 26.071938 0.001478 -0.0 -0.004563 0.001361 -0.0 -0.003235 -159.175002 -52.43808 171.416924 161.784384 -36.345941 -152.014923 -84.557056 57.992306 8.56256 109.12243 -63.818989 97.256349 -2.134342 2.094629 0.365755 -145.262487 -53.307895 119.050386 15.728272 -28.259302 -5.772175 -130.198989 24.281438 102.606656 -171.65856 -40.527701 145.194012 -150.381999 27.462361 135.846954 0.00526 1.011585 0.317995 10.473768 -56.912159 -7.739912 2.246354 6.184415 2.057081 -1.757181 -10.420017 -3.601878 153.405895 8.318978 -159.106196 -144.549925 42.452057 -153.007491 -145.436628 -46.678208 -92.828212 -171.104559 -2.872428 -147.71458 -174.84251 -22.181103 -88.254708 8.266676 -55.839911 3.204277 21.727932 26.347811 -15.424177 176.262776 -29.345955 -108.64869 98.176925 59.650052 -89.272597 -72.901663 -77.054935 -44.678333 0.012308 -1.174548 0.3683 -5.565305 36.831367 -6.374672 141.978799 2.658903 138.940889 0.241207 -6.503552 4.15964 -0.001355 0.000172 -0.001379 2.142796 6.125637 -5.089584 -3.292756 39.741144 -91.6336 -67.603986 -69.383514 20.600081 8.9e-05 0.000172 -0.000256 65.527231 -61.696073 108.105774 73.115288 40.448285 176.478012 14.210397 80.408724 66.167871
-2.5968 60.0437 137.693 -18.546721 -23.478481 15.470519 11.763696 4.866227 99.721501 -6.531386 -1.326315 -86.172177 -12.279192 21.932816 -73.55472 39.057088 5.92088 72.98195 0.000393 -0.0 -0.000661 0.000393 -0.0 -0.000661 -157.69778 -21.100838 165.28079 145.238982 49.70942 166.126492 -138.54253 -10.566599 112.303876 90.29461 -65.363411 79.263471 -4.200829 4.091217 0.791369 73.324327 -77.538216 5.234635 45.667446 -64.098899 4.565709 179.95418 -45.771906 106.2861 -19.033262 37.718949 14.392874 -165.527869 -12.14275 143.922291 -145.083082 -2.471545 -178.350998 -152.925937 -20.307517 -176.228626 -129.506672 -22.858467 -127.13305 -35.956462 -46.723515 -37.392757 -2.056182 -14.613463 2.988766 93.979817 -25.716931 167.041746 166.766268 12.35262 157.401181 3.308667 24.049198 -2.018771 164.523527 -2.19851 -89.564784 -20.237752 -58.418736 -21.334299 115.500898 29.734721 -97.704029 70.276153 54.901062 -49.607429 -8.563117 -26.893489 3.116994 166.823003 -15.470071 -144.127893 0.060859 -3.522784 1.109001 -10.298537 4.205692 -0.460482 17.304222 -30.392418 16.545024 31.464804 -46.157978 32.578874 -0.01381 -0.001453 -0.011617 3.40119 5.02285 -94.002453 -33.43215 0.883577 71.656959 36.850917 -32.449449 -13.993202 -179.983513 75.751096 -0.011948 -154.380598 -2.336782 85.504469 70.773409 -3.48462 -104.10945 109.983142 -10.604677 -23.353537
-2.5829 60.054300000000005 137.731 -18.321941 -23.558699 15.269465 15.903478 6.539092 -58.480424 5.722021 -5.674585 72.11534 7.550008 28.123598 134.040143 -30.727795 30.326782 -125.727431 -0.001774 -0.0 0.004074 -0.002543 0.0 -0.001445 -1.63209 8.785024 2.088433 -106.089439 -3.210287 -177.696361 -178.258077 -2.735042 -133.810621 -10.05198 46.766283 4.801592 141.532305 -43.409097 73.453727 -32.746407 -21.60698 -13.929068 16.523114 -29.696729 -5.8599 -169.488115 -29.41584 109.354453 -1.189049 3.39807 0.683902 -104.55663 61.922507 95.531498 -0.051797 -3.112384 -0.980956 5.415943 38.15306 6.728008 -140.147745 -2.135004 -137.250605 -1.889887 -10.281779 -5.585166 154.810989 0.781633 -160.901197 64.921538 31.709472 -11.649435 -5.093637 -54.746244 59.729245 -156.431713 -36.532577 -138.908315 -24.332805 -23.476532 -1.381888 -0.598838 -19.098525 18.777764 58.204001 42.378115 -47.013623 0.154129 9.871666 1.304633 -10.898015 -34.029417 3.266084 125.152909 54.614014 -114.636915 145.119941 0.30994 179.22722 145.619921 -49.612897 167.925162 -1.579886 4.283547 -1.449901 10.656985 -26.814825 11.84121 0.000214 -0.000529 3.8e-05 1.88118 3.932108 170.791278 3.806549 -35.965354 148.989226 -58.130957 -14.119669 3.376402 179.984468 75.74919 0.0125 -152.021409 -2.28781 -91.278755 -83.294566 8.357517 -114.870213 -172.953334 16.525274 152.195438
-2.5366 60.0325 137.821 -17.869269 -23.713296 14.997635 11.096754 5.345189 86.694835 -6.501383 -3.105583 -73.31514 9.148854 21.468913 92.994803 -34.846425 6.577374 -91.174877 -0.003909 0.0 -0.000261 0.001769 -0.0 -0.000972 -156.291729 -8.99627 162.968347 -53.066304 6.809726 15.577563 -175.16525 14.685062 -135.141932 -8.694484 43.506613 4.189902 -4.295922 4.181406 0.812406 -4.182395 5.296142 6.185625 23.505148 -41.437143 -5.651516 9.806713 8.813449 -0.90194 10.723886 -33.513739 -3.267479 19.095194 -44.775653 0.38632 -145.096461 -1.773843 -178.571729 12.236533 36.841736 -4.819611 -152.677883 39.212814 -147.920998 36.751387 76.353064 -2.280861 45.75819 64.666513 -48.453707 112.16571 0.036782 -109.478311 -10.479194 -41.307884 56.139399 -159.16909 -31.383838 -141.234816 -178.264931 -19.088837 -88.974772 -174.705486 -22.710833 -102.466071 129.451333 16.907945 -108.692377 41.949401 51.121742 -25.367979 102.26301 58.882382 -93.186056 86.489308 63.989962 -78.502485 -0.004115 2.292038 -0.720703 -5.454551 36.067856 -6.174033 7.609419 -16.551357 7.172647 123.961924 -34.466712 122.824317 0.000918 -0.000665 4.3e-05 1.68083 6.166703 5.442682 19.822276 40.968167 133.50528 39.059187 19.790179 165.393919 -0.000113 0.001044 -2.6e-05 68.786885 -61.841715 -151.280307 57.061337 -64.780674 -52.124965 -95.594396 50.554986 9.484792
-2.4989999999999997 59.9796 137.894 -17.506487 -23.881476 14.78244 10.61761 4.8698 93.488941 -6.459799 -2.503794 -79.922221 -12.13999 20.885557 -65.308893 37.571675 1.061618 66.042246 -0.000449 -0.0 0.001539 -0.000567 -0.0 0.00291 -151.283098 17.509396 156.560899 22.949514 -51.95958 71.600169 -72.313383 -72.849255 -31.79922 -2.239409 25.146503 2.785474 -173.452845 -11.125355 89.904612 -134.89923 11.700859 67.549441 -53.486041 41.537286 42.7896 -153.21706 6.737121 110.50387 11.763618 -36.541506 -3.236071 -14.143286 37.260301 11.178484 -0.031278 5.074847 1.596743 9.250957 8.303257 1.015774 -150.437324 30.498087 -146.254205 -153.612027 29.441702 -145.098362 158.257619 -27.316441 -166.418894 52.668429 0.496978 18.511638 8.720468 -43.012535 67.67316 -144.827631 -49.611932 -129.60591 172.741496 -10.419024 -89.928622 149.300576 5.802981 -77.518073 120.981992 25.4221 -102.168989 112.316873 48.660383 -86.755534 167.987517 -29.900268 -145.327663 -0.493514 7.429333 -1.505536 145.109059 -0.891447 178.849099 157.072322 52.893812 -174.471099 10.973525 -22.099755 10.404775 -1.198561 -4.59263 1.55681 0.001419 -0.000818 -2e-06 1.135564 6.135109 14.679227 27.281692 36.628287 113.477493 23.022483 27.670304 175.237175 0.005897 0.000891 0.004198 69.341526 -60.863813 -90.363258 -66.675313 -49.891766 163.232728 92.516569 -73.344788 -13.738125
-2.4974 59.9072 137.942 -17.481892 -23.965383 14.738114 15.332446 5.578107 -72.441128 6.188197 -3.841971 86.285425 9.237948 23.05146 100.010208 -34.773346 10.957889 -97.108377 -0.000652 -0.0 0.001283 -0.000652 -0.0 0.001283 2.110481 -15.07778 -3.077337 62.947836 9.340274 -23.468893 167.67452 -15.304162 95.75567 161.533512 -24.77723 143.949542 12.317587 -12.285416 -0.578694 35.0606 -79.417257 -26.237483 -82.897491 42.453414 69.238878 -166.97006 -14.584901 114.371678 3.644659 -11.144817 -1.760544 -144.731081 36.976281 131.801027 -145.116815 2.927371 179.950547 9.318578 70.751207 1.710744 -13.61745 -25.869869 -12.959747 -11.541336 -28.749772 -13.31071 158.226169 -26.936159 -166.349847 47.66159 15.838601 18.205757 155.655104 20.53245 166.940861 -1.069305 12.427739 -2.693805 -176.655835 -20.558343 -88.659087 -124.560183 -66.208437 -94.60904 1.008044 1.61516 -0.577855 164.190408 -17.1911 -109.932886 158.788476 -0.975491 -142.290871 167.419239 -17.364311 -143.829377 0.01019 3.74685 -1.178981 -11.268603 -33.757936 4.062665 -5.825349 17.425915 -5.231063 123.992448 -35.122697 122.216218 -0.010481 0.000133 -0.007548 1.438922 3.930046 -175.977389 -12.325619 -46.460607 7.251698 -160.222265 54.701798 -106.610232 179.99956 75.751218 0.000454 -152.308866 -1.853394 -97.372584 -70.968257 -0.923769 74.796942 59.884995 1.563801 -10.639255
-2.4861999999999997 59.8189 137.99699999999999 -17.747572 -23.939444 14.86528 11.221701 4.594413 93.416483 -6.219176 -2.295954 -79.768004 -8.263075 15.030351 -27.440953 24.398366 -18.159895 31.808051 -0.00232 -0.0 0.004553 -0.002889 0.0 -0.002329 2.040934 -69.090379 -15.959457 84.352098 42.507697 -78.385669 167.707648 -10.02016 97.854841 162.014172 -23.96411 144.15717 -3.395044 3.316697 0.617464 3.086879 -2.995958 -0.206331 -13.186463 18.060649 8.780492 5.483886 5.527792 0.242644 -142.881669 33.178243 130.684697 -11.07735 32.711887 9.154919 -145.114998 -0.157835 -179.080129 11.260204 62.351662 -0.904796 -149.075988 25.41745 -145.164756 -156.503476 38.896633 -146.21447 142.239242 40.721841 -146.607988 -98.668594 -29.130068 -126.371635 2.495272 -31.012102 -23.138292 5.07058 32.103739 -2.759244 -175.954179 -21.18931 -88.509281 172.416808 -8.825282 -97.573784 151.030145 -16.55673 -121.027332 169.435354 -31.319552 -118.413297 147.079016 26.506826 -134.146886 172.49993 -32.242742 -143.641828 0.043089 5.592793 -1.760857 -7.142465 25.662073 -3.829231 37.673701 -45.311685 36.544314 -2.643808 -1.809832 1.027781 -179.988219 75.749403 -0.008485 -169.455639 79.62319 -172.957213 -14.286419 -34.004458 118.309636 -64.849974 -12.482317 2.74061 0.03733 -0.001459 0.027631 68.047676 -60.070257 -24.022191 -82.179741 4.839679 -54.535168 -44.020548 46.004823 145.096931
